<mxfile host="app.diagrams.net" modified="2024-04-10T11:41:22.414Z" agent="Mozilla/5.0 (Windows NT 10.0; Win64; x64) AppleWebKit/537.36 (KHTML, like Gecko) Chrome/123.0.0.0 Safari/537.36" etag="BDizMJ4tAcMGGvtUvXuP" version="24.2.3" type="github">
  <diagram name="Page-1" id="KntOKRbxbfMYD2WhFOAg">
    <mxGraphModel dx="1050" dy="557" grid="1" gridSize="10" guides="1" tooltips="1" connect="1" arrows="1" fold="1" page="1" pageScale="1" pageWidth="827" pageHeight="1169" math="0" shadow="0">
      <root>
        <mxCell id="0" />
        <mxCell id="1" parent="0" />
        <mxCell id="pDvS2UjtiNvDEzDKLtWh-1" value="Tourist" style="html=1;whiteSpace=wrap;" vertex="1" parent="1">
          <mxGeometry x="70" y="602.5" width="80" height="30" as="geometry" />
        </mxCell>
        <mxCell id="pDvS2UjtiNvDEzDKLtWh-2" value="Admin" style="html=1;whiteSpace=wrap;" vertex="1" parent="1">
          <mxGeometry x="70" y="360" width="80" height="30" as="geometry" />
        </mxCell>
        <mxCell id="pDvS2UjtiNvDEzDKLtWh-3" value="user_account" style="html=1;whiteSpace=wrap;" vertex="1" parent="1">
          <mxGeometry x="65" y="170" width="90" height="30" as="geometry" />
        </mxCell>
        <mxCell id="pDvS2UjtiNvDEzDKLtWh-4" value="issue" style="html=1;whiteSpace=wrap;" vertex="1" parent="1">
          <mxGeometry x="210" y="170" width="70" height="30" as="geometry" />
        </mxCell>
        <mxCell id="pDvS2UjtiNvDEzDKLtWh-5" value="hotel" style="html=1;whiteSpace=wrap;" vertex="1" parent="1">
          <mxGeometry x="680" y="175" width="70" height="20" as="geometry" />
        </mxCell>
        <mxCell id="pDvS2UjtiNvDEzDKLtWh-6" value="recommendation" style="html=1;whiteSpace=wrap;" vertex="1" parent="1">
          <mxGeometry x="590" y="360" width="100" height="40" as="geometry" />
        </mxCell>
        <mxCell id="pDvS2UjtiNvDEzDKLtWh-7" value="resturant" style="html=1;whiteSpace=wrap;" vertex="1" parent="1">
          <mxGeometry x="545" y="170" width="80" height="30" as="geometry" />
        </mxCell>
        <mxCell id="pDvS2UjtiNvDEzDKLtWh-8" value="attraction" style="html=1;whiteSpace=wrap;" vertex="1" parent="1">
          <mxGeometry x="340" y="602.5" width="90" height="30" as="geometry" />
        </mxCell>
        <mxCell id="pDvS2UjtiNvDEzDKLtWh-9" value="local_guide" style="html=1;whiteSpace=wrap;" vertex="1" parent="1">
          <mxGeometry x="335" y="365" width="80" height="30" as="geometry" />
        </mxCell>
        <mxCell id="pDvS2UjtiNvDEzDKLtWh-10" value="itinerary" style="html=1;whiteSpace=wrap;" vertex="1" parent="1">
          <mxGeometry x="610" y="602.5" width="80" height="30" as="geometry" />
        </mxCell>
        <mxCell id="pDvS2UjtiNvDEzDKLtWh-11" value="manages" style="rhombus;whiteSpace=wrap;html=1;" vertex="1" parent="1">
          <mxGeometry x="80" y="250" width="60" height="60" as="geometry" />
        </mxCell>
        <mxCell id="pDvS2UjtiNvDEzDKLtWh-12" value="assists" style="rhombus;whiteSpace=wrap;html=1;" vertex="1" parent="1">
          <mxGeometry x="230" y="430" width="60" height="50" as="geometry" />
        </mxCell>
        <mxCell id="pDvS2UjtiNvDEzDKLtWh-13" value="adds" style="rhombus;whiteSpace=wrap;html=1;" vertex="1" parent="1">
          <mxGeometry x="360" y="480" width="50" height="50" as="geometry" />
        </mxCell>
        <mxCell id="pDvS2UjtiNvDEzDKLtWh-14" value="handles" style="rhombus;whiteSpace=wrap;html=1;" vertex="1" parent="1">
          <mxGeometry x="190" y="250" width="70" height="60" as="geometry" />
        </mxCell>
        <mxCell id="pDvS2UjtiNvDEzDKLtWh-15" value="monitors" style="rhombus;whiteSpace=wrap;html=1;" vertex="1" parent="1">
          <mxGeometry x="80" y="440" width="60" height="60" as="geometry" />
        </mxCell>
        <mxCell id="pDvS2UjtiNvDEzDKLtWh-16" value="searches" style="rhombus;whiteSpace=wrap;html=1;" vertex="1" parent="1">
          <mxGeometry x="210" y="587.5" width="70" height="60" as="geometry" />
        </mxCell>
        <mxCell id="pDvS2UjtiNvDEzDKLtWh-17" value="" style="endArrow=none;html=1;rounded=0;exitX=1;exitY=0.5;exitDx=0;exitDy=0;entryX=0;entryY=0.5;entryDx=0;entryDy=0;" edge="1" parent="1" source="pDvS2UjtiNvDEzDKLtWh-1" target="pDvS2UjtiNvDEzDKLtWh-16">
          <mxGeometry width="50" height="50" relative="1" as="geometry">
            <mxPoint x="140" y="530" as="sourcePoint" />
            <mxPoint x="190" y="480" as="targetPoint" />
          </mxGeometry>
        </mxCell>
        <mxCell id="pDvS2UjtiNvDEzDKLtWh-18" value="" style="endArrow=none;html=1;rounded=0;exitX=1;exitY=0.5;exitDx=0;exitDy=0;entryX=0;entryY=0.5;entryDx=0;entryDy=0;" edge="1" parent="1" source="pDvS2UjtiNvDEzDKLtWh-16" target="pDvS2UjtiNvDEzDKLtWh-8">
          <mxGeometry width="50" height="50" relative="1" as="geometry">
            <mxPoint x="300" y="560" as="sourcePoint" />
            <mxPoint x="350" y="510" as="targetPoint" />
          </mxGeometry>
        </mxCell>
        <mxCell id="pDvS2UjtiNvDEzDKLtWh-19" value="" style="endArrow=none;html=1;rounded=0;exitX=0.5;exitY=0;exitDx=0;exitDy=0;entryX=0.5;entryY=1;entryDx=0;entryDy=0;" edge="1" parent="1" source="pDvS2UjtiNvDEzDKLtWh-1" target="pDvS2UjtiNvDEzDKLtWh-15">
          <mxGeometry width="50" height="50" relative="1" as="geometry">
            <mxPoint x="120" y="530" as="sourcePoint" />
            <mxPoint x="170" y="480" as="targetPoint" />
          </mxGeometry>
        </mxCell>
        <mxCell id="pDvS2UjtiNvDEzDKLtWh-20" value="" style="endArrow=none;html=1;rounded=0;exitX=0.5;exitY=0;exitDx=0;exitDy=0;entryX=0.5;entryY=1;entryDx=0;entryDy=0;" edge="1" parent="1" source="pDvS2UjtiNvDEzDKLtWh-15" target="pDvS2UjtiNvDEzDKLtWh-2">
          <mxGeometry width="50" height="50" relative="1" as="geometry">
            <mxPoint x="140" y="430" as="sourcePoint" />
            <mxPoint x="190" y="380" as="targetPoint" />
          </mxGeometry>
        </mxCell>
        <mxCell id="pDvS2UjtiNvDEzDKLtWh-21" value="" style="endArrow=none;html=1;rounded=0;exitX=0.75;exitY=0;exitDx=0;exitDy=0;entryX=0;entryY=1;entryDx=0;entryDy=0;" edge="1" parent="1" source="pDvS2UjtiNvDEzDKLtWh-2" target="pDvS2UjtiNvDEzDKLtWh-14">
          <mxGeometry width="50" height="50" relative="1" as="geometry">
            <mxPoint x="80" y="350" as="sourcePoint" />
            <mxPoint x="130" y="300" as="targetPoint" />
          </mxGeometry>
        </mxCell>
        <mxCell id="pDvS2UjtiNvDEzDKLtWh-22" value="" style="endArrow=none;html=1;rounded=0;exitX=1;exitY=0;exitDx=0;exitDy=0;entryX=0.5;entryY=1;entryDx=0;entryDy=0;" edge="1" parent="1" source="pDvS2UjtiNvDEzDKLtWh-14" target="pDvS2UjtiNvDEzDKLtWh-4">
          <mxGeometry width="50" height="50" relative="1" as="geometry">
            <mxPoint x="140" y="270" as="sourcePoint" />
            <mxPoint x="190" y="220" as="targetPoint" />
          </mxGeometry>
        </mxCell>
        <mxCell id="pDvS2UjtiNvDEzDKLtWh-23" value="" style="endArrow=none;html=1;rounded=0;exitX=0.5;exitY=0;exitDx=0;exitDy=0;entryX=0.5;entryY=1;entryDx=0;entryDy=0;" edge="1" parent="1" source="pDvS2UjtiNvDEzDKLtWh-11" target="pDvS2UjtiNvDEzDKLtWh-3">
          <mxGeometry width="50" height="50" relative="1" as="geometry">
            <mxPoint x="140" y="210" as="sourcePoint" />
            <mxPoint x="190" y="160" as="targetPoint" />
          </mxGeometry>
        </mxCell>
        <mxCell id="pDvS2UjtiNvDEzDKLtWh-24" value="" style="endArrow=none;html=1;rounded=0;exitX=0.5;exitY=0;exitDx=0;exitDy=0;entryX=0.5;entryY=1;entryDx=0;entryDy=0;" edge="1" parent="1" source="pDvS2UjtiNvDEzDKLtWh-2" target="pDvS2UjtiNvDEzDKLtWh-11">
          <mxGeometry width="50" height="50" relative="1" as="geometry">
            <mxPoint x="120" y="305" as="sourcePoint" />
            <mxPoint x="170" y="255" as="targetPoint" />
          </mxGeometry>
        </mxCell>
        <mxCell id="pDvS2UjtiNvDEzDKLtWh-25" value="" style="endArrow=none;html=1;rounded=0;exitX=1;exitY=0;exitDx=0;exitDy=0;entryX=0;entryY=1;entryDx=0;entryDy=0;" edge="1" parent="1" source="pDvS2UjtiNvDEzDKLtWh-1" target="pDvS2UjtiNvDEzDKLtWh-12">
          <mxGeometry width="50" height="50" relative="1" as="geometry">
            <mxPoint x="170" y="550" as="sourcePoint" />
            <mxPoint x="220" y="500" as="targetPoint" />
          </mxGeometry>
        </mxCell>
        <mxCell id="pDvS2UjtiNvDEzDKLtWh-26" value="" style="endArrow=none;html=1;rounded=0;exitX=1;exitY=0;exitDx=0;exitDy=0;entryX=0;entryY=0.75;entryDx=0;entryDy=0;" edge="1" parent="1" source="pDvS2UjtiNvDEzDKLtWh-12" target="pDvS2UjtiNvDEzDKLtWh-9">
          <mxGeometry width="50" height="50" relative="1" as="geometry">
            <mxPoint x="260" y="400" as="sourcePoint" />
            <mxPoint x="310" y="350" as="targetPoint" />
          </mxGeometry>
        </mxCell>
        <mxCell id="pDvS2UjtiNvDEzDKLtWh-27" value="edits" style="rhombus;whiteSpace=wrap;html=1;" vertex="1" parent="1">
          <mxGeometry x="300" y="450" width="50" height="50" as="geometry" />
        </mxCell>
        <mxCell id="pDvS2UjtiNvDEzDKLtWh-28" value="provides" style="rhombus;whiteSpace=wrap;html=1;" vertex="1" parent="1">
          <mxGeometry x="470" y="350" width="60" height="60" as="geometry" />
        </mxCell>
        <mxCell id="pDvS2UjtiNvDEzDKLtWh-29" value="removes" style="rhombus;whiteSpace=wrap;html=1;" vertex="1" parent="1">
          <mxGeometry x="400" y="450" width="60" height="50" as="geometry" />
        </mxCell>
        <mxCell id="pDvS2UjtiNvDEzDKLtWh-30" value="is_used_to_&lt;div&gt;plan&lt;/div&gt;" style="rhombus;whiteSpace=wrap;html=1;" vertex="1" parent="1">
          <mxGeometry x="485" y="590" width="90" height="55" as="geometry" />
        </mxCell>
        <mxCell id="pDvS2UjtiNvDEzDKLtWh-31" value="" style="endArrow=none;html=1;rounded=0;exitX=1;exitY=0.5;exitDx=0;exitDy=0;entryX=0;entryY=0.5;entryDx=0;entryDy=0;" edge="1" parent="1" source="pDvS2UjtiNvDEzDKLtWh-9" target="pDvS2UjtiNvDEzDKLtWh-28">
          <mxGeometry width="50" height="50" relative="1" as="geometry">
            <mxPoint x="410" y="380" as="sourcePoint" />
            <mxPoint x="460" y="330" as="targetPoint" />
          </mxGeometry>
        </mxCell>
        <mxCell id="pDvS2UjtiNvDEzDKLtWh-32" value="" style="endArrow=none;html=1;rounded=0;exitX=1;exitY=0.5;exitDx=0;exitDy=0;entryX=0;entryY=0.5;entryDx=0;entryDy=0;" edge="1" parent="1" source="pDvS2UjtiNvDEzDKLtWh-28" target="pDvS2UjtiNvDEzDKLtWh-6">
          <mxGeometry width="50" height="50" relative="1" as="geometry">
            <mxPoint x="520" y="360" as="sourcePoint" />
            <mxPoint x="570" y="310" as="targetPoint" />
          </mxGeometry>
        </mxCell>
        <mxCell id="pDvS2UjtiNvDEzDKLtWh-33" value="" style="endArrow=none;html=1;rounded=0;exitX=1;exitY=0.5;exitDx=0;exitDy=0;entryX=0;entryY=0.5;entryDx=0;entryDy=0;" edge="1" parent="1" source="pDvS2UjtiNvDEzDKLtWh-8" target="pDvS2UjtiNvDEzDKLtWh-30">
          <mxGeometry width="50" height="50" relative="1" as="geometry">
            <mxPoint x="460" y="570" as="sourcePoint" />
            <mxPoint x="510" y="520" as="targetPoint" />
          </mxGeometry>
        </mxCell>
        <mxCell id="pDvS2UjtiNvDEzDKLtWh-34" value="" style="endArrow=none;html=1;rounded=0;exitX=1;exitY=0.5;exitDx=0;exitDy=0;entryX=0;entryY=0.5;entryDx=0;entryDy=0;" edge="1" parent="1" source="pDvS2UjtiNvDEzDKLtWh-30" target="pDvS2UjtiNvDEzDKLtWh-10">
          <mxGeometry width="50" height="50" relative="1" as="geometry">
            <mxPoint x="570" y="550" as="sourcePoint" />
            <mxPoint x="620" y="500" as="targetPoint" />
          </mxGeometry>
        </mxCell>
        <mxCell id="pDvS2UjtiNvDEzDKLtWh-35" value="d" style="ellipse;whiteSpace=wrap;html=1;aspect=fixed;" vertex="1" parent="1">
          <mxGeometry x="625" y="290" width="30" height="30" as="geometry" />
        </mxCell>
        <mxCell id="pDvS2UjtiNvDEzDKLtWh-37" value="" style="endArrow=none;html=1;rounded=0;entryX=0.75;entryY=1;entryDx=0;entryDy=0;exitX=0;exitY=0;exitDx=0;exitDy=0;" edge="1" parent="1" source="pDvS2UjtiNvDEzDKLtWh-35" target="pDvS2UjtiNvDEzDKLtWh-7">
          <mxGeometry width="50" height="50" relative="1" as="geometry">
            <mxPoint x="580" y="260" as="sourcePoint" />
            <mxPoint x="630" y="210" as="targetPoint" />
          </mxGeometry>
        </mxCell>
        <mxCell id="pDvS2UjtiNvDEzDKLtWh-38" value="" style="endArrow=none;html=1;rounded=0;exitX=1;exitY=0;exitDx=0;exitDy=0;entryX=0.25;entryY=1;entryDx=0;entryDy=0;" edge="1" parent="1" source="pDvS2UjtiNvDEzDKLtWh-35" target="pDvS2UjtiNvDEzDKLtWh-5">
          <mxGeometry width="50" height="50" relative="1" as="geometry">
            <mxPoint x="680" y="260" as="sourcePoint" />
            <mxPoint x="730" y="210" as="targetPoint" />
          </mxGeometry>
        </mxCell>
        <mxCell id="pDvS2UjtiNvDEzDKLtWh-39" value="" style="endArrow=none;html=1;rounded=0;entryX=0.5;entryY=1;entryDx=0;entryDy=0;exitX=0.5;exitY=0;exitDx=0;exitDy=0;" edge="1" parent="1" source="pDvS2UjtiNvDEzDKLtWh-6" target="pDvS2UjtiNvDEzDKLtWh-35">
          <mxGeometry width="50" height="50" relative="1" as="geometry">
            <mxPoint x="590" y="320" as="sourcePoint" />
            <mxPoint x="640" y="270" as="targetPoint" />
          </mxGeometry>
        </mxCell>
        <mxCell id="pDvS2UjtiNvDEzDKLtWh-40" value="" style="endArrow=none;html=1;rounded=0;exitX=0.75;exitY=0;exitDx=0;exitDy=0;entryX=0.5;entryY=1;entryDx=0;entryDy=0;" edge="1" parent="1" source="pDvS2UjtiNvDEzDKLtWh-8" target="pDvS2UjtiNvDEzDKLtWh-29">
          <mxGeometry width="50" height="50" relative="1" as="geometry">
            <mxPoint x="430" y="530" as="sourcePoint" />
            <mxPoint x="480" y="480" as="targetPoint" />
          </mxGeometry>
        </mxCell>
        <mxCell id="pDvS2UjtiNvDEzDKLtWh-41" value="" style="endArrow=none;html=1;rounded=0;entryX=0.5;entryY=1;entryDx=0;entryDy=0;exitX=0.5;exitY=0;exitDx=0;exitDy=0;" edge="1" parent="1" source="pDvS2UjtiNvDEzDKLtWh-13" target="pDvS2UjtiNvDEzDKLtWh-9">
          <mxGeometry width="50" height="50" relative="1" as="geometry">
            <mxPoint x="350" y="460" as="sourcePoint" />
            <mxPoint x="400" y="410" as="targetPoint" />
          </mxGeometry>
        </mxCell>
        <mxCell id="pDvS2UjtiNvDEzDKLtWh-42" value="" style="endArrow=none;html=1;rounded=0;entryX=0.5;entryY=1;entryDx=0;entryDy=0;exitX=0.5;exitY=0;exitDx=0;exitDy=0;" edge="1" parent="1" source="pDvS2UjtiNvDEzDKLtWh-8" target="pDvS2UjtiNvDEzDKLtWh-13">
          <mxGeometry width="50" height="50" relative="1" as="geometry">
            <mxPoint x="365" y="550" as="sourcePoint" />
            <mxPoint x="415" y="500" as="targetPoint" />
          </mxGeometry>
        </mxCell>
        <mxCell id="pDvS2UjtiNvDEzDKLtWh-43" value="" style="endArrow=none;html=1;rounded=0;entryX=0.25;entryY=1;entryDx=0;entryDy=0;exitX=0.5;exitY=0;exitDx=0;exitDy=0;" edge="1" parent="1" source="pDvS2UjtiNvDEzDKLtWh-27" target="pDvS2UjtiNvDEzDKLtWh-9">
          <mxGeometry width="50" height="50" relative="1" as="geometry">
            <mxPoint x="300" y="470" as="sourcePoint" />
            <mxPoint x="350" y="420" as="targetPoint" />
          </mxGeometry>
        </mxCell>
        <mxCell id="pDvS2UjtiNvDEzDKLtWh-44" value="" style="endArrow=none;html=1;rounded=0;entryX=0.5;entryY=1;entryDx=0;entryDy=0;exitX=0.25;exitY=0;exitDx=0;exitDy=0;" edge="1" parent="1" source="pDvS2UjtiNvDEzDKLtWh-8" target="pDvS2UjtiNvDEzDKLtWh-27">
          <mxGeometry width="50" height="50" relative="1" as="geometry">
            <mxPoint x="290" y="545" as="sourcePoint" />
            <mxPoint x="340" y="495" as="targetPoint" />
          </mxGeometry>
        </mxCell>
        <mxCell id="pDvS2UjtiNvDEzDKLtWh-45" value="" style="endArrow=none;html=1;rounded=0;entryX=1;entryY=1;entryDx=0;entryDy=0;exitX=0.5;exitY=0;exitDx=0;exitDy=0;" edge="1" parent="1" source="pDvS2UjtiNvDEzDKLtWh-29" target="pDvS2UjtiNvDEzDKLtWh-9">
          <mxGeometry width="50" height="50" relative="1" as="geometry">
            <mxPoint x="380" y="450" as="sourcePoint" />
            <mxPoint x="430" y="400" as="targetPoint" />
          </mxGeometry>
        </mxCell>
        <mxCell id="pDvS2UjtiNvDEzDKLtWh-46" value="password" style="ellipse;whiteSpace=wrap;html=1;" vertex="1" parent="1">
          <mxGeometry x="140" y="410" width="80" height="20" as="geometry" />
        </mxCell>
        <mxCell id="pDvS2UjtiNvDEzDKLtWh-47" value="" style="ellipse;whiteSpace=wrap;html=1;" vertex="1" parent="1">
          <mxGeometry x="310" y="150" width="80" height="20" as="geometry" />
        </mxCell>
        <mxCell id="pDvS2UjtiNvDEzDKLtWh-48" value="email" style="ellipse;whiteSpace=wrap;html=1;" vertex="1" parent="1">
          <mxGeometry x="180" y="350" width="80" height="20" as="geometry" />
        </mxCell>
        <mxCell id="pDvS2UjtiNvDEzDKLtWh-49" value="name" style="ellipse;whiteSpace=wrap;html=1;" vertex="1" parent="1">
          <mxGeometry x="10" y="420" width="80" height="20" as="geometry" />
        </mxCell>
        <mxCell id="pDvS2UjtiNvDEzDKLtWh-50" value="&lt;u&gt;attraction_id&lt;/u&gt;" style="ellipse;whiteSpace=wrap;html=1;" vertex="1" parent="1">
          <mxGeometry x="369" y="690" width="90" height="30" as="geometry" />
        </mxCell>
        <mxCell id="pDvS2UjtiNvDEzDKLtWh-51" value="&lt;u&gt;admin_id&lt;/u&gt;" style="ellipse;whiteSpace=wrap;html=1;" vertex="1" parent="1">
          <mxGeometry x="10" y="310" width="80" height="30" as="geometry" />
        </mxCell>
        <mxCell id="pDvS2UjtiNvDEzDKLtWh-52" value="name" style="ellipse;whiteSpace=wrap;html=1;" vertex="1" parent="1">
          <mxGeometry x="495" y="555" width="70" height="30" as="geometry" />
        </mxCell>
        <mxCell id="pDvS2UjtiNvDEzDKLtWh-53" value="" style="ellipse;whiteSpace=wrap;html=1;" vertex="1" parent="1">
          <mxGeometry x="230" y="750" width="80" height="30" as="geometry" />
        </mxCell>
        <mxCell id="pDvS2UjtiNvDEzDKLtWh-54" value="ticket_price" style="ellipse;whiteSpace=wrap;html=1;" vertex="1" parent="1">
          <mxGeometry x="440" y="660" width="80" height="30" as="geometry" />
        </mxCell>
        <mxCell id="pDvS2UjtiNvDEzDKLtWh-55" value="open_hours" style="ellipse;whiteSpace=wrap;html=1;" vertex="1" parent="1">
          <mxGeometry x="270" y="645" width="80" height="30" as="geometry" />
        </mxCell>
        <mxCell id="pDvS2UjtiNvDEzDKLtWh-56" value="location" style="ellipse;whiteSpace=wrap;html=1;" vertex="1" parent="1">
          <mxGeometry x="280" y="690" width="80" height="30" as="geometry" />
        </mxCell>
        <mxCell id="pDvS2UjtiNvDEzDKLtWh-57" value="description" style="ellipse;whiteSpace=wrap;html=1;" vertex="1" parent="1">
          <mxGeometry x="430" y="520" width="80" height="30" as="geometry" />
        </mxCell>
        <mxCell id="pDvS2UjtiNvDEzDKLtWh-58" value="category" style="ellipse;whiteSpace=wrap;html=1;" vertex="1" parent="1">
          <mxGeometry x="240" y="550" width="80" height="30" as="geometry" />
        </mxCell>
        <mxCell id="pDvS2UjtiNvDEzDKLtWh-60" value="" style="endArrow=none;html=1;rounded=0;exitX=1;exitY=0.25;exitDx=0;exitDy=0;entryX=0;entryY=1;entryDx=0;entryDy=0;" edge="1" parent="1" source="pDvS2UjtiNvDEzDKLtWh-8" target="pDvS2UjtiNvDEzDKLtWh-52">
          <mxGeometry width="50" height="50" relative="1" as="geometry">
            <mxPoint x="460" y="620" as="sourcePoint" />
            <mxPoint x="510" y="570" as="targetPoint" />
          </mxGeometry>
        </mxCell>
        <mxCell id="pDvS2UjtiNvDEzDKLtWh-61" value="" style="endArrow=none;html=1;rounded=0;entryX=0;entryY=0;entryDx=0;entryDy=0;exitX=1;exitY=1;exitDx=0;exitDy=0;" edge="1" parent="1" source="pDvS2UjtiNvDEzDKLtWh-58" target="pDvS2UjtiNvDEzDKLtWh-8">
          <mxGeometry width="50" height="50" relative="1" as="geometry">
            <mxPoint x="300" y="602.5" as="sourcePoint" />
            <mxPoint x="350" y="552.5" as="targetPoint" />
          </mxGeometry>
        </mxCell>
        <mxCell id="pDvS2UjtiNvDEzDKLtWh-62" value="" style="endArrow=none;html=1;rounded=0;entryX=0.5;entryY=0;entryDx=0;entryDy=0;exitX=1;exitY=0.75;exitDx=0;exitDy=0;" edge="1" parent="1" source="pDvS2UjtiNvDEzDKLtWh-8" target="pDvS2UjtiNvDEzDKLtWh-54">
          <mxGeometry width="50" height="50" relative="1" as="geometry">
            <mxPoint x="380" y="685" as="sourcePoint" />
            <mxPoint x="430" y="635" as="targetPoint" />
          </mxGeometry>
        </mxCell>
        <mxCell id="pDvS2UjtiNvDEzDKLtWh-63" value="" style="endArrow=none;html=1;rounded=0;exitX=0.5;exitY=0;exitDx=0;exitDy=0;entryX=0.75;entryY=1;entryDx=0;entryDy=0;" edge="1" parent="1" source="pDvS2UjtiNvDEzDKLtWh-50" target="pDvS2UjtiNvDEzDKLtWh-8">
          <mxGeometry width="50" height="50" relative="1" as="geometry">
            <mxPoint x="360" y="690" as="sourcePoint" />
            <mxPoint x="410" y="640" as="targetPoint" />
          </mxGeometry>
        </mxCell>
        <mxCell id="pDvS2UjtiNvDEzDKLtWh-64" value="" style="endArrow=none;html=1;rounded=0;entryX=0.25;entryY=1;entryDx=0;entryDy=0;exitX=1;exitY=0;exitDx=0;exitDy=0;" edge="1" parent="1" source="pDvS2UjtiNvDEzDKLtWh-55" target="pDvS2UjtiNvDEzDKLtWh-8">
          <mxGeometry width="50" height="50" relative="1" as="geometry">
            <mxPoint x="315" y="697.5" as="sourcePoint" />
            <mxPoint x="365" y="647.5" as="targetPoint" />
          </mxGeometry>
        </mxCell>
        <mxCell id="pDvS2UjtiNvDEzDKLtWh-65" value="" style="endArrow=none;html=1;rounded=0;exitX=1;exitY=0;exitDx=0;exitDy=0;entryX=0.5;entryY=1;entryDx=0;entryDy=0;" edge="1" parent="1" source="pDvS2UjtiNvDEzDKLtWh-8" target="pDvS2UjtiNvDEzDKLtWh-57">
          <mxGeometry width="50" height="50" relative="1" as="geometry">
            <mxPoint x="430" y="605" as="sourcePoint" />
            <mxPoint x="480" y="555" as="targetPoint" />
          </mxGeometry>
        </mxCell>
        <mxCell id="pDvS2UjtiNvDEzDKLtWh-66" value="" style="endArrow=none;html=1;rounded=0;entryX=0.5;entryY=1;entryDx=0;entryDy=0;exitX=1;exitY=0.5;exitDx=0;exitDy=0;" edge="1" parent="1" source="pDvS2UjtiNvDEzDKLtWh-56" target="pDvS2UjtiNvDEzDKLtWh-8">
          <mxGeometry width="50" height="50" relative="1" as="geometry">
            <mxPoint x="345" y="695" as="sourcePoint" />
            <mxPoint x="395" y="645" as="targetPoint" />
          </mxGeometry>
        </mxCell>
      </root>
    </mxGraphModel>
  </diagram>
</mxfile>
